<svg xmlns="http://www.w3.org/2000/svg" width="16" height="16" viewBox="0 0 16 16">
    <path fill="#FFF" fill-rule="nonzero" d="M7.995.153a.49.49 0 0 0-.485.5v1.658a5.724 5.724 0 0 0-5.204 5.2H.653a.49.49 0 1 0 0 .979h1.653a5.724 5.724 0 0 0 5.204 5.204v1.653a.49.49 0 1 0 .98 0v-1.653a5.724 5.724 0 0 0 5.204-5.204h1.653a.49.49 0 1 0 0-.98h-1.653A5.724 5.724 0 0 0 8.49 2.311V.653a.49.49 0 0 0-.495-.5zM7.51 3.291v4.22H3.29a4.726 4.726 0 0 1 4.22-4.22zm.98 0a4.726 4.726 0 0 1 4.22 4.22H8.49V3.29zM3.29 8.49h4.22v4.224A4.73 4.73 0 0 1 3.29 8.49zm5.2 0h4.22a4.73 4.73 0 0 1-4.22 4.224V8.49z"/>
</svg>
