<svg xmlns="http://www.w3.org/2000/svg" width="30" height="30" viewBox="0 0 30 30">
    <g fill="none" fill-rule="evenodd">
        <path fill="#18589F" d="M7.41 1h15.18c2.23 0 3.037.232 3.852.668a4.543 4.543 0 0 1 1.89 1.89c.436.815.668 1.623.668 3.852v15.18c0 2.23-.232 3.037-.668 3.852a4.543 4.543 0 0 1-1.89 1.89c-.815.436-1.623.668-3.852.668H7.41c-2.23 0-3.037-.232-3.852-.668a4.543 4.543 0 0 1-1.89-1.89C1.232 25.627 1 24.82 1 22.59V7.41c0-2.23.232-3.037.668-3.852a4.543 4.543 0 0 1 1.89-1.89C4.373 1.232 5.18 1 7.41 1z"/>
        <path fill="#FFF" fill-rule="nonzero" d="M14.995 7.153a.49.49 0 0 0-.485.5v1.658a5.724 5.724 0 0 0-5.204 5.2H7.653a.49.49 0 1 0 0 .979h1.653a5.724 5.724 0 0 0 5.204 5.204v1.653a.49.49 0 1 0 .98 0v-1.653a5.724 5.724 0 0 0 5.204-5.204h1.653a.49.49 0 1 0 0-.98h-1.653a5.724 5.724 0 0 0-5.204-5.199V7.653a.49.49 0 0 0-.495-.5zm-.485 3.138v4.22h-4.22a4.726 4.726 0 0 1 4.22-4.22zm.98 0a4.726 4.726 0 0 1 4.22 4.22h-4.22v-4.22zm-5.2 5.199h4.22v4.224a4.73 4.73 0 0 1-4.22-4.224zm5.2 0h4.22a4.73 4.73 0 0 1-4.22 4.224V15.49z"/>
    </g>
</svg>
