<svg xmlns="http://www.w3.org/2000/svg" width="16" height="18" viewBox="0 0 16 18">
    <path fill="#000" fill-rule="nonzero" d="M8.627 1.286A1.11 1.11 0 0 0 7.53 2.41V9h-.313V3.696a1.11 1.11 0 0 0-1.098-1.125A1.11 1.11 0 0 0 5.02 3.696v7.875L3.51 9.512a1.244 1.244 0 0 0-1-.512c-.696 0-1.255.583-1.255 1.286 0 .281.088.552.255.773l3.765 5.143c.235.321.607.512 1 .512h6.745a.96.96 0 0 0 .931-.783l.745-4.068c.03-.191.05-.392.05-.593V6.268a1.11 1.11 0 0 0-1.099-1.125 1.11 1.11 0 0 0-1.098 1.125V9h-.314V3.696a1.11 1.11 0 0 0-1.098-1.125 1.11 1.11 0 0 0-1.098 1.125V9h-.314V2.41a1.11 1.11 0 0 0-1.098-1.124zm0-1.286c.883 0 1.697.512 2.098 1.326.138-.03.275-.04.412-.04 1.294 0 2.353 1.085 2.353 2.41v.171c1.363-.08 2.51.995 2.51 2.4v5.003c0 .281-.03.563-.078.834l-.746 4.058A2.203 2.203 0 0 1 13.02 18H6.275c-.785 0-1.54-.392-2.01-1.025L.5 11.833a2.641 2.641 0 0 1-.5-1.547c0-1.417 1.118-2.572 2.51-2.572.412 0 .912.1 1.255.342v-4.36c0-1.325 1.059-2.41 2.353-2.41.137 0 .274.01.411.04A2.351 2.351 0 0 1 8.627 0z"/>
</svg>
